<?xml version="1.0" standalone="no"?>
<!DOCTYPE svg PUBLIC "-//W3C//DTD SVG 20010904//EN"
 "http://www.w3.org/TR/2001/REC-SVG-20010904/DTD/svg10.dtd">
<svg version="1.0" xmlns="http://www.w3.org/2000/svg"
 width="313.000000pt" height="313.000000pt" viewBox="0 0 313.000000 313.000000"
 preserveAspectRatio="xMidYMid meet">

<g transform="translate(0.000000,313.000000) scale(0.100000,-0.100000)"
fill="#000000" stroke="none">
<path d="M1355 3004 c-263 -41 -526 -166 -714 -340 l-69 -64 -125 0 c-75 0
-128 -4 -132 -10 -4 -6 23 -41 58 -78 l65 -67 -34 -50 c-100 -146 -197 -391
-230 -580 -23 -133 -23 -367 0 -495 20 -112 67 -270 107 -359 l29 -64 0 -243
0 -244 195 0 196 0 81 -56 c154 -105 313 -174 499 -216 151 -33 417 -33 568 0
186 42 345 111 499 216 l81 56 205 0 205 0 4 273 4 272 46 130 c60 172 80 291
80 480 0 208 -33 382 -106 561 -22 56 -25 80 -32 272 l-7 210 -68 -69 c-37
-38 -70 -69 -74 -69 -3 0 -63 58 -133 128 -143 143 -242 214 -404 291 -240
114 -530 156 -794 115z m437 -34 c316 -54 613 -225 814 -469 l53 -64 -279
-279 c-153 -153 -283 -278 -287 -278 -4 0 -170 162 -368 360 l-359 360 -376 0
-375 1 50 45 c177 160 439 288 665 324 41 6 82 13 90 15 57 11 272 3 372 -15z
m-908 -990 l106 -105 -337 -5 -338 -5 -5 -445 -5 -445 -28 75 c-74 196 -107
433 -88 635 24 252 96 464 227 667 l43 67 160 -167 c88 -92 207 -214 265 -272z
m2010 -34 c39 -144 50 -231 50 -381 0 -150 -11 -237 -50 -381 -54 -205 -53
-212 -53 381 0 593 -1 586 53 381z m-795 -1228 l1 -308 133 0 132 -1 -33 -28
c-48 -41 -238 -138 -337 -171 -158 -53 -234 -65 -430 -65 -196 0 -272 12 -430
65 -99 33 -289 130 -337 171 l-33 28 138 1 137 0 1 653 c0 358 4 674 7 700 l7
49 244 -252 c134 -138 247 -250 252 -248 15 6 144 135 339 340 l195 206 6
-417 c3 -229 7 -554 8 -723z"/>
</g>
</svg>
