<?xml version="1.0" encoding="UTF-8"?>
<svg xmlns="http://www.w3.org/2000/svg" width="2100" height="900" viewBox="0 0 2100 900" role="img" aria-label="MATHDOSMAN - Slide 1">
  <defs>
    <linearGradient id="bg" x1="0" y1="0" x2="1" y2="1">
      <stop offset="0" stop-color="#ffffff"/>
      <stop offset="1" stop-color="#f8f9fa"/>
    </linearGradient>
    <pattern id="grid" width="60" height="60" patternUnits="userSpaceOnUse">
      <path d="M 60 0 L 0 0 0 60" fill="none" stroke="#000" stroke-opacity="0.07" stroke-width="2"/>
    </pattern>
  </defs>

  <rect width="2100" height="900" fill="url(#bg)"/>
  <rect width="2100" height="900" fill="url(#grid)"/>

  <!-- Left brand block -->
  <g transform="translate(170 140)">
    <rect x="0" y="0" width="560" height="560" rx="48" fill="#ffffff" stroke="#000" stroke-opacity="0.14" stroke-width="6"/>
    <g transform="translate(110 110)" fill="none" stroke="#000" stroke-width="16" stroke-linecap="round" stroke-linejoin="round">
      <path d="M170 0 L340 98 V294 L170 392 L0 294 V98 Z"/>
      <path d="M65 260 V120 L170 182 L275 120 V260"/>
      <path d="M65 260 L170 322 L275 260"/>
    </g>
  </g>

  <!-- Title -->
  <g fill="#000" font-family="sans-serif">
    <text x="820" y="320" font-size="92" font-weight="800" letter-spacing="2">MATHDOSMAN</text>
    <text x="820" y="400" font-size="34" font-weight="600" opacity="0.75">Portal Materi &amp; Bank Soal</text>

    <text x="820" y="520" font-size="40" font-weight="700">Belajar, latihan, dan cetak soal.</text>
    <text x="820" y="585" font-size="32" opacity="0.8">Materi • Berita • Paket Soal</text>
  </g>

  <!-- Decorative math marks -->
  <g fill="none" stroke="#000" stroke-opacity="0.22" stroke-width="10" stroke-linecap="round">
    <path d="M1650 220 h220"/>
    <path d="M1760 110 v220"/>
    <path d="M1600 620 c120 -120 240 -120 360 0"/>
  </g>
</svg>
