<?xml version="1.0" encoding="UTF-8"?>
<svg xmlns="http://www.w3.org/2000/svg" width="2100" height="900" viewBox="0 0 2100 900" role="img" aria-label="MATHDOSMAN - Slide 2">
  <defs>
    <linearGradient id="bg2" x1="0" y1="0" x2="1" y2="0">
      <stop offset="0" stop-color="#ffffff"/>
      <stop offset="1" stop-color="#f8f9fa"/>
    </linearGradient>
  </defs>

  <rect width="2100" height="900" fill="url(#bg2)"/>

  <!-- Axes + grid -->
  <g transform="translate(140 120)" fill="none" stroke="#000">
    <rect x="0" y="0" width="980" height="660" rx="32" fill="#fff" stroke-opacity="0.14" stroke-width="6"/>
    <g stroke-opacity="0.08" stroke-width="2">
      <path d="M70 60 H910"/>
      <path d="M70 140 H910"/>
      <path d="M70 220 H910"/>
      <path d="M70 300 H910"/>
      <path d="M70 380 H910"/>
      <path d="M70 460 H910"/>
      <path d="M70 540 H910"/>
      <path d="M70 620 H910"/>

      <path d="M130 40 V640"/>
      <path d="M250 40 V640"/>
      <path d="M370 40 V640"/>
      <path d="M490 40 V640"/>
      <path d="M610 40 V640"/>
      <path d="M730 40 V640"/>
      <path d="M850 40 V640"/>
    </g>

    <g stroke-opacity="0.45" stroke-width="8" stroke-linecap="round">
      <path d="M90 600 H920"/>
      <path d="M120 640 V40"/>
    </g>

    <!-- Curve -->
    <path d="M120 560 C 260 520, 320 360, 450 340 C 590 320, 640 470, 760 470 C 860 470, 900 350, 920 240" stroke="#000" stroke-opacity="0.75" stroke-width="10" fill="none" stroke-linecap="round"/>

    <!-- Points -->
    <g fill="#000" fill-opacity="0.75" stroke="none">
      <circle cx="260" cy="520" r="10"/>
      <circle cx="450" cy="340" r="10"/>
      <circle cx="760" cy="470" r="10"/>
      <circle cx="920" cy="240" r="10"/>
    </g>
  </g>

  <!-- Copy on right -->
  <g fill="#000" font-family="sans-serif">
    <text x="1240" y="250" font-size="78" font-weight="800">Grafik &amp; Fungsi</text>
    <text x="1240" y="330" font-size="34" opacity="0.75">Eksplor konsep lewat visual.</text>

    <text x="1240" y="470" font-size="44" font-weight="700">Contoh:</text>
    <text x="1240" y="540" font-size="46" font-weight="800">y = x² + 2x + 1</text>
    <text x="1240" y="605" font-size="34" opacity="0.8">Latihan soal terstruktur dalam paket.</text>
  </g>

  <!-- Small mark -->
  <g transform="translate(1900 90)" fill="none" stroke="#000" stroke-opacity="0.22" stroke-width="10" stroke-linecap="round">
    <path d="M0 60 h120"/>
    <path d="M60 0 v120"/>
  </g>
</svg>
